<svg width="120" height="120" viewBox="0 0 120 120" fill="none" xmlns="http://www.w3.org/2000/svg">
  <defs>
    <linearGradient id="logoGradient" x1="0%" y1="0%" x2="100%" y2="100%">
      <stop offset="0%" style="stop-color:#00f5ff"/>
      <stop offset="100%" style="stop-color:#bf00ff"/>
    </linearGradient>
  </defs>
  <rect width="120" height="120" rx="24" fill="url(#logoGradient)"/>
  <path d="M60 30C45 30 35 40 35 55C35 65 40 72 50 75L45 90H55L58 80H62L65 90H75L70 75C80 72 85 65 85 55C85 40 75 30 60 30ZM60 40C70 40 75 47 75 55C75 63 70 70 60 70C50 70 45 63 45 55C45 47 50 40 60 40Z" fill="#0a0a0f"/>
  <circle cx="52" cy="52" r="5" fill="#0a0a0f"/>
  <circle cx="68" cy="52" r="5" fill="#0a0a0f"/>
</svg>

